<?xml version="1.0" encoding="UTF-8" standalone="no"?>
<!-- Generator: Adobe Illustrator 12.0.0, SVG Export Plug-In . SVG Version: 6.00 Build 51448)  -->

<svg
   xmlns:dc="http://purl.org/dc/elements/1.1/"
   xmlns:cc="http://creativecommons.org/ns#"
   xmlns:rdf="http://www.w3.org/1999/02/22-rdf-syntax-ns#"
   xmlns:svg="http://www.w3.org/2000/svg"
   xmlns="http://www.w3.org/2000/svg"
   xmlns:sodipodi="http://sodipodi.sourceforge.net/DTD/sodipodi-0.dtd"
   xmlns:inkscape="http://www.inkscape.org/namespaces/inkscape"
   version="1.1"
   id="Layer_1"
   width="483.54443"
   height="252.26172"
   viewBox="0 0 483.54443 252.26172"
   overflow="visible"
   enable-background="new 0 0 582 409"
   xml:space="preserve"
   inkscape:version="0.48.4 r9939"
   sodipodi:docname="Gap_cell_junction-en.svg"
   style="overflow:visible"
   inkscape:export-filename="C:\Users\jannetta\Dropbox\Thesis\js_thesis\graphics\Gap_cell_junction-en.png"
   inkscape:export-xdpi="186.55"
   inkscape:export-ydpi="186.55"><metadata
   id="metadata483"><rdf:RDF><cc:Work
       rdf:about=""><dc:format>image/svg+xml</dc:format><dc:type
         rdf:resource="http://purl.org/dc/dcmitype/StillImage" /><dc:title></dc:title></cc:Work></rdf:RDF></metadata><defs
   id="defs481" /><sodipodi:namedview
   pagecolor="#ffffff"
   bordercolor="#666666"
   borderopacity="1"
   objecttolerance="10"
   gridtolerance="10"
   guidetolerance="10"
   inkscape:pageopacity="0"
   inkscape:pageshadow="2"
   inkscape:window-width="1920"
   inkscape:window-height="1058"
   id="namedview479"
   showgrid="false"
   fit-margin-top="0"
   fit-margin-left="0"
   fit-margin-right="0"
   fit-margin-bottom="0"
   inkscape:zoom="2.0562347"
   inkscape:cx="282.91062"
   inkscape:cy="170.59605"
   inkscape:window-x="-8"
   inkscape:window-y="-8"
   inkscape:window-maximized="1"
   inkscape:current-layer="Layer_1" />


<path
   d="m 206.95262,122.87973 c -19.389,3.27 -38.626,7.297 -57.886,11.15 -10.149,2.031 -20.527,3.645 -30.598,6.005 -13.317,3.122 -26.346001,7.186 -39.413001,11.178 -4.883,1.492 -9.892,2.562 -14.583,4.638 -2.371,1.05 -4.839,2.098 -5.969,4.385 -1.027,2.079 -2.065,6.208 -0.411,8.17 1.054,1.249 2.947,1.562 4.386,2.216 2.424,1.103 4.601,2.637 7.192,3.502 5.501,1.837 11.097,3.368 16.618,5.296 8.741,3.053 19.255001,6.673 28.611001,5.495 7.04,-0.887 13.469,-4.385 20.507,-5.31 3.384,-0.445 5.757,0.396 8.93,0.968 3.918,0.707 8.047,0.045 12.042,0.836 7.399,1.463 14.834,3.072 22.245,4.605 6.954,1.438 13.94,1.969 20.757,3.956 3.018,0.88 6.091,1.877 9.158,2.895 4.339,1.44 9.022,1.189 13.391,2.751 3.514,1.256 6.522,1.16 10.191,1.926 5.356,1.119 10.625,2.222 16.047,3.131 11.053,1.852 22.177,2.691 33.014,5.057 8.423,1.838 16.814,3.82 25.215,5.755 7.25,1.67 12.906,4.039 17.632,10.084 2.433,3.112 3.562,5 7.48,6.014 10.269,2.657 21.095,4.243 31.805,4.498 10.702,0.254 20.944,1.496 31.605,2.389 6.268,0.525 13.646,0.794 19.924,0.1 18.709,-2.07 27.563,-21.354 36.259,-35.341 8.51,-13.686 36.764,-55.337 16.921,-69.291 -8.335,-5.862 -15.794,0.205 -24.235,1.301 -14.05,1.825 -28.384,-7.216 -41.842,-10.192 -27.331,-6.042 -55.417,-8.468 -83.38,-8.426 -37.513,0.055 -74.668,4.028 -111.613,10.259 z"
   id="path7"
   inkscape:connector-curvature="0"
   style="fill:#53b2bc" />
<path
   d="m 84.927619,142.69173 c 23.076001,-14.788 45.497001,-30.656 68.329001,-45.820002 12.237,-8.127 25.867,-18.82 40.12,-22.904 13.512,-3.872 27.979,-2.054 41.81,-1.894 43.366,0.502 84.688,15.073 124.953,28.781002 20.722,7.055 38.604,12.025 60.303,15.441 12.374,1.948 25.736,3.959 37.859,6.997 3.222,0.807 11.081,2.61 13.203,5.532 5.42,7.464 -5.017,21.377 -8.844,27.396 -7.167,11.271 -13.105,23.22 -20.135,34.595 -6.11,9.888 -11.773,19.659 -21.069,27.207 -5.67,4.604 -11.546,4.048 -18.467,4.048 -21.414,0 -43.879,-1.686 -64.602,-7.624 -4.938,-1.415 -7.028,-4.077 -10.092,-7.851 -2.481,-3.057 -5.49,-5.491 -8.928,-7.393 -2.971,-1.643 -6.631,-1.885 -10.001,-2.461 -3.69,-0.631 -7.398,-1.662 -11.156,-2.305 -4.173,-0.714 -8.598,-2.035 -12.79,-1.281 -3.232,0.582 -6.506,-0.899 -9.684,-1.385 -3.682,-0.563 -7.209,-1.946 -10.943,-2.201 -6.055,-0.414 -11.8,-1.17 -17.799,-2.438 -5.322,-1.125 -10.67,-1.674 -16.02,-2.668 -6.324,-1.174 -12.643,-2.033 -19.023,-3.198 -8.267,-1.51 -16.293,-3.968 -24.548,-5.578 -2.935,-0.573 -5.885,-0.961 -8.844,-1.28 -6.781,-0.73 -13.486,-2.221 -20.175,-3.554 -6.28,-1.251 -13.042,-3.165 -19.513,-2.783 -10.358,0.611 -18.295,8.088 -29.055,6.069 -7.093,-1.331 -14.439001,-3.04 -21.170001,-5.645 -5.179,-2.005 -10.36,-4.937 -15.77,-6.206 -4.938,-1.159 -10.22,-1.025 -14.996,-2.866 2.048,-3.969 7.936,-5.073 11.545,-7.158 5.243,-3.029 10.405,-6.307 15.502,-9.573 z"
   id="path9"
   inkscape:connector-curvature="0"
   style="fill:#044a7f" />
<path
   d="m 207.95262,70.879728 c -19.388,3.27 -38.626,7.297 -57.886,11.15 -10.149,2.031 -20.527,3.645 -30.598,6.005 -13.317,3.122 -26.346001,7.186 -39.413001,11.178 -6.291,1.922002 -21.969,4.969002 -23.54,12.916002 -2.126,10.76 12.179,12.552 18.854,14.556 8.854,2.659 17.12,5.735 26.193001,7.861 7.896,1.85 16.875,3.741 24.009,7.522 4.086,2.166 8.212,5.813 10.769,9.643 2.06,3.086 4.126,6.523 7.431,8.432 1.536,0.888 3.617,1.159 5.348,1.566 2.829,0.666 5.553,1.519 8.352,2.319 1.78,0.509 3.58,0.992 5.341,1.559 2.665,0.857 5.319,1.774 8.057,2.376 2.459,0.542 5.021,0.25 7.394,0.827 5.568,1.354 11.191,2.363 16.814,3.453 6.749,1.308 13.432,2.923 20.159,4.332 6.743,1.413 13.6,1.941 20.308,3.14 9.074,1.623 18.087,3.583 27.193,5.03 4.558,0.724 9.132,1.298 13.731,1.688 3.777,0.32 7.36,1.708 11.184,1.976 4.786,0.336 9.412,0.656 14.134,1.554 5.178,0.985 10.415,2.508 15.41,-0.059 3.826,-1.967 7.141,-5.357 10.46,-8.019 7.302,-5.856 15.573,-10.462 24.495,-13.328 9.633,-3.094 20.268,-1.454 30.147,0 8.694,1.28 17.203,3.549 25.86,5.035 6.049,1.038 15.828,3.694 21.6,1.341 10.535,-4.296 16.729,-18.669 22.348,-27.707 7.496,-12.056 14.824,-24.537 21.842,-36.77 6.224,-10.850002 18.068,-32.027002 -0.016,-37.017002 -17.045,-4.702 -34.916,4.287 -51.329,1.685 -6.771,-1.074 -12.969,-4.6 -19.655,-6.078 -27.331,-6.042 -55.417,-8.468 -83.38,-8.426 -37.517,0.056 -74.671,4.029 -111.616,10.26 z"
   id="path11"
   inkscape:connector-curvature="0"
   style="fill:#00a0c6" />
<path
   d="m 345.98762,157.04073 c -9.797,4.762 -18.266,11.949 -27.904,17.022 -4.112,2.165 -8.131,3.676 -12.856,2.97 -5.016,-0.749 -10.094,-0.917 -15.127,-1.497 -2.294,-0.264 -4.521,-0.946 -6.761,-1.27 -1.832,-0.264 -3.566,0.29 -5.425,0.169 -5.131,-0.333 -9.23,-2.518 -14.252,-3.22 -9.194,-1.286 -18.24,-1.684 -27.399,-3.413 -5.075,-0.958 -9.934,-2.635 -14.965,-3.366 -7.088,-1.029 -14.095,-2.916 -21.236,-3.323 -6.699,-0.38 -13.519,-2.393 -20.037,-3.898 -6.904,-1.593 -13.781,-3.302 -20.678,-4.926 -2.781,-0.655 -6.142,-1.049 -8.271,-3.032 -4.257,-3.965 -7.089,-9.65 -12.302,-12.545 -1.562,-0.868 -3.278,-1.944 -4.895,-2.694 -7.57,-3.51 -15.401,-6.333 -23.194,-9.339 -11.088001,-4.276 -22.969001,-7.481 -34.550001,-10.126 -4.309,-0.984 -8.611,-1.223 -12.783,-2.749 -1.512,-0.552 -6.686,-0.66 -6.094,-3.048 0.988,-3.988 10.058,-6.696 13.167,-8.492 5.242,-3.028002 10.404,-6.306002 15.501,-9.572002 17.054001,-10.929 34.309001,-22.011 51.119001,-33.111 16.037,-10.59 28.943,-20.938 49.295,-21.53 24.346,-0.708 48.909,4.916 73.068,7.242 30.119,2.9 60.188,6.319 89.781,12.777 25.496,5.564 51.26,7.479 77.064,11 10.594,1.445 21.417,4.312 32.154,4 4.031,-0.117 14.574,-1.985 17.733,0.869 5.046,4.559 -1.95,11.438 -4.729,16.251 -9.637,16.693002 -17.745,34.211002 -27.888,50.625002 -3.729,6.036 -9.534,20.314 -16.841,21.934 -3.907,0.866 -9.998,-0.992 -13.901,-1.495 -7.077,-0.912 -14.168,-1.767 -21.243,-2.685 -14.123,-1.833 -27.586,-6.794 -41.47,-1.329 -1.387,0.549 -2.747,1.152 -4.081,1.801 z"
   id="path13"
   inkscape:connector-curvature="0"
   style="fill:#0060b6" />
<g
   id="g15"
   transform="translate(-8.0893812,-83.928272)">
	<path
   d="m 249.954,177.197 c -1.942,-0.199 -10.285,0.354 -7.436,4.122 1.482,1.96 3.927,2.418 6.243,2.215 0.932,6.166 8.415,4.838 12.559,3.25 1.206,-0.462 2.075,-1.153 3.163,-1.12 1.77,0.054 3.482,1.223 5.354,1.333 3.038,0.178 6.103,-0.453 8.655,-2.13 1.777,-1.167 3.458,-3.054 1.513,-4.832 1.259,-0.647 3.058,-1.029 2.718,-2.875 -0.83,-4.51 -11.866,-1.837 -14.399,-1.292 -3.225,0.694 -6.449,1.485 -9.714,1.966 -1.896,0.279 -4.62,0.896 -6.47,0.292 -0.766,-0.25 -1.13,-0.821 -2.186,-0.929 z"
   id="path17"
   inkscape:connector-curvature="0"
   style="fill:#044a7f" />
	<g
   id="g19">
		<linearGradient
   id="XMLID_21_"
   gradientUnits="userSpaceOnUse"
   x1="253.7583"
   y1="164.90089"
   x2="261.4559"
   y2="181.6158">
			<stop
   offset="0"
   style="stop-color:#FFBF00"
   id="stop22" />
			<stop
   offset="0.2625"
   style="stop-color:#FFB300"
   id="stop24" />
			<stop
   offset="0.7345"
   style="stop-color:#FF9400"
   id="stop26" />
			<stop
   offset="1"
   style="stop-color:#FF7F00"
   id="stop28" />
		</linearGradient>
		<path
   d="m 248.014,173.422 c 1.025,2.852 3.435,2.292 5.841,2.804 2.554,0.543 3.375,2.127 4.813,4.031 1.076,1.424 3.598,2.639 5.227,1.296 1.751,-1.444 0.609,-4.672 0.39,-6.515 -0.279,-2.354 1.157,-4.734 0.588,-6.905 -0.933,-3.556 -7.102,-5.535 -10.253,-4.231 -3.611,1.495 -8.203,5.079 -6.606,9.52 z"
   id="path30"
   inkscape:connector-curvature="0"
   style="fill:url(#XMLID_21_);stroke:#ff4000" />
		<linearGradient
   id="XMLID_22_"
   gradientUnits="userSpaceOnUse"
   x1="270.99759"
   y1="163.81931"
   x2="267.1351"
   y2="181.5939">
			<stop
   offset="0"
   style="stop-color:#FFBF00"
   id="stop33" />
			<stop
   offset="0.2463"
   style="stop-color:#FFB500"
   id="stop35" />
			<stop
   offset="0.6683"
   style="stop-color:#FF9900"
   id="stop37" />
			<stop
   offset="1"
   style="stop-color:#FF7F00"
   id="stop39" />
		</linearGradient>
		<path
   d="m 261.857,173.608 c 0.076,0.606 0.147,1.16 0.196,1.634 0.226,2.225 -0.381,4.468 2.513,3.103 2.48,-1.17 4.591,-3.216 6.88,-4.707 1.566,-1.02 2.776,-1.813 4.643,-1.898 1.327,-0.06 1.65,0.526 2.07,-1.011 0.22,-0.803 -0.162,-1.85 -0.551,-2.538 -1.145,-2.016 -3.67,-3.14 -5.813,-3.68 -1.664,-0.42 -3.295,-1.402 -5,-1.605 -6.232,-0.744 -5.481,6.331 -4.938,10.702 z"
   id="path41"
   inkscape:connector-curvature="0"
   style="fill:url(#XMLID_22_);stroke:#ff4000" />
		<path
   d="m 265.663,179.02 c 1.079,-0.844 2.177,-1.62 3.599,-1.912 1.93,-0.395 4.297,-0.393 6.21,0.109 1.148,0.301 2.217,1.198 3.439,1.118 3.857,-0.251 3.708,-4.958 2.106,-7.303 -2.153,-3.151 -6.617,-4.39 -10.167,-3.167 -2.725,0.939 -11.01,9.509 -6.829,12.422 0.568,-0.406 1.103,-0.845 1.642,-1.267 z"
   id="path43"
   inkscape:connector-curvature="0"
   style="fill:#ffbf00;stroke:#ff4000" />
		<path
   d="m 263.322,182.762 c 0.512,0.856 1.085,1.58 1.581,1.997 4.589,3.867 16.573,0.107 13.583,-7.157 -0.841,-2.043 -3.229,-2.852 -5.222,-3.573 -3.305,-1.195 -6.235,-0.416 -9.109,1.414 -2.937,1.87 -2.537,4.472 -0.833,7.319 z"
   id="path45"
   inkscape:connector-curvature="0"
   style="fill:#ffbf00;stroke:#ff4000" />
		<path
   d="m 241.828,175.168 c -0.394,1.008 -0.488,2.019 -0.059,2.862 1.822,3.58 5.552,3.773 8.727,2.202 1.307,-0.647 2.558,-1.369 3.998,-1.68 0.553,-0.12 4.023,0.56 3.845,0.749 5.616,-5.93 -7.927,-10.875 -12.4,-8.742 -1.408,0.672 -3.337,2.635 -4.111,4.609 z"
   id="path47"
   inkscape:connector-curvature="0"
   style="fill:#ffbf00;stroke:#ff4000" />
		<path
   d="m 248.533,182.653 c 0.272,0.563 0.731,1.106 1.414,1.608 2.172,1.599 5.662,2.424 8.312,2.357 1.647,-0.042 3.914,-0.178 5.119,-1.48 1.169,-1.263 0.6,-2.417 0.348,-3.939 -0.478,-2.889 -1.817,-7.124 -5.678,-6.436 -3.241,0.577 -11.996,2.755 -9.515,7.89 z"
   id="path49"
   inkscape:connector-curvature="0"
   style="fill:#ffbf00;stroke:#ff4000" />
	</g>
</g>
<g
   id="g51"
   transform="translate(-8.0893812,-83.928272)">
	<path
   d="m 294.621,196.197 c -1.942,-0.199 -10.285,0.354 -7.436,4.122 1.482,1.96 3.927,2.418 6.243,2.215 0.932,6.166 8.415,4.838 12.559,3.25 1.207,-0.462 2.076,-1.153 3.162,-1.12 1.771,0.054 3.482,1.223 5.355,1.333 3.037,0.178 6.103,-0.453 8.655,-2.13 1.777,-1.167 3.457,-3.054 1.514,-4.832 1.258,-0.647 3.057,-1.029 2.717,-2.875 -0.828,-4.51 -11.866,-1.837 -14.399,-1.292 -3.225,0.694 -6.449,1.485 -9.714,1.966 -1.896,0.279 -4.62,0.896 -6.47,0.292 -0.766,-0.25 -1.13,-0.82 -2.186,-0.929 z"
   id="path53"
   inkscape:connector-curvature="0"
   style="fill:#044a7f" />
	<g
   id="g55">
		<linearGradient
   id="XMLID_23_"
   gradientUnits="userSpaceOnUse"
   x1="298.42581"
   y1="183.9014"
   x2="306.12341"
   y2="200.6163">
			<stop
   offset="0"
   style="stop-color:#FFBF00"
   id="stop58" />
			<stop
   offset="0.2625"
   style="stop-color:#FFB300"
   id="stop60" />
			<stop
   offset="0.7345"
   style="stop-color:#FF9400"
   id="stop62" />
			<stop
   offset="1"
   style="stop-color:#FF7F00"
   id="stop64" />
		</linearGradient>
		<path
   d="m 292.681,192.423 c 1.025,2.852 3.435,2.292 5.84,2.804 2.555,0.543 3.375,2.127 4.814,4.031 1.075,1.424 3.598,2.639 5.227,1.296 1.752,-1.444 0.609,-4.672 0.391,-6.515 -0.279,-2.354 1.156,-4.734 0.588,-6.905 -0.934,-3.556 -7.103,-5.535 -10.254,-4.231 -3.611,1.494 -8.203,5.078 -6.606,9.52 z"
   id="path66"
   inkscape:connector-curvature="0"
   style="fill:url(#XMLID_23_);stroke:#ff4000" />
		<linearGradient
   id="XMLID_24_"
   gradientUnits="userSpaceOnUse"
   x1="315.66409"
   y1="182.81979"
   x2="311.80161"
   y2="200.59441">
			<stop
   offset="0"
   style="stop-color:#FFBF00"
   id="stop69" />
			<stop
   offset="0.2463"
   style="stop-color:#FFB500"
   id="stop71" />
			<stop
   offset="0.6683"
   style="stop-color:#FF9900"
   id="stop73" />
			<stop
   offset="1"
   style="stop-color:#FF7F00"
   id="stop75" />
		</linearGradient>
		<path
   d="m 306.523,192.609 c 0.076,0.606 0.148,1.16 0.197,1.634 0.225,2.225 -0.381,4.468 2.512,3.103 2.48,-1.17 4.592,-3.216 6.881,-4.707 1.566,-1.02 2.776,-1.813 4.644,-1.898 1.326,-0.06 1.65,0.526 2.07,-1.011 0.219,-0.803 -0.162,-1.85 -0.553,-2.538 -1.145,-2.016 -3.67,-3.14 -5.813,-3.68 -1.664,-0.42 -3.295,-1.402 -5,-1.605 -6.232,-0.744 -5.48,6.33 -4.938,10.702 z"
   id="path77"
   inkscape:connector-curvature="0"
   style="fill:url(#XMLID_24_);stroke:#ff4000" />
		<path
   d="m 310.33,198.02 c 1.078,-0.844 2.178,-1.62 3.598,-1.912 1.93,-0.395 4.297,-0.393 6.212,0.109 1.148,0.301 2.217,1.198 3.439,1.118 3.857,-0.251 3.707,-4.958 2.105,-7.303 -2.152,-3.151 -6.617,-4.39 -10.169,-3.167 -2.725,0.939 -11.01,9.509 -6.828,12.422 0.569,-0.405 1.104,-0.844 1.643,-1.267 z"
   id="path79"
   inkscape:connector-curvature="0"
   style="fill:#ffbf00;stroke:#ff4000" />
		<path
   d="m 307.988,201.762 c 0.512,0.856 1.086,1.58 1.582,1.997 4.588,3.867 16.573,0.107 13.583,-7.157 -0.84,-2.043 -3.229,-2.852 -5.222,-3.573 -3.305,-1.195 -6.236,-0.416 -9.109,1.414 -2.937,1.87 -2.537,4.472 -0.834,7.319 z"
   id="path81"
   inkscape:connector-curvature="0"
   style="fill:#ffbf00;stroke:#ff4000" />
		<path
   d="m 286.495,194.169 c -0.394,1.008 -0.488,2.019 -0.059,2.862 1.822,3.58 5.552,3.773 8.727,2.202 1.308,-0.647 2.558,-1.369 3.998,-1.68 0.553,-0.12 4.023,0.56 3.845,0.749 5.615,-5.93 -7.927,-10.875 -12.4,-8.742 -1.408,0.671 -3.337,2.634 -4.111,4.609 z"
   id="path83"
   inkscape:connector-curvature="0"
   style="fill:#ffbf00;stroke:#ff4000" />
		<path
   d="m 293.2,201.653 c 0.272,0.563 0.731,1.106 1.414,1.608 2.171,1.599 5.662,2.424 8.312,2.357 1.647,-0.042 3.914,-0.178 5.119,-1.48 1.168,-1.263 0.6,-2.417 0.348,-3.939 -0.479,-2.889 -1.816,-7.124 -5.678,-6.436 -3.24,0.578 -11.996,2.756 -9.515,7.89 z"
   id="path85"
   inkscape:connector-curvature="0"
   style="fill:#ffbf00;stroke:#ff4000" />
	</g>
</g>
<g
   id="g87"
   transform="translate(-8.0893812,-83.928272)">
	<path
   d="m 215.295,200.385 c -1.942,-0.199 -10.285,0.354 -7.436,4.122 1.482,1.96 3.927,2.418 6.243,2.215 0.932,6.166 8.415,4.838 12.559,3.25 1.206,-0.462 2.075,-1.153 3.163,-1.12 1.77,0.054 3.482,1.223 5.354,1.333 3.038,0.178 6.103,-0.453 8.655,-2.13 1.777,-1.167 3.458,-3.054 1.513,-4.832 1.259,-0.647 3.058,-1.029 2.718,-2.875 -0.83,-4.51 -11.866,-1.837 -14.399,-1.292 -3.225,0.694 -6.449,1.485 -9.714,1.966 -1.896,0.279 -4.62,0.896 -6.47,0.292 -0.765,-0.25 -1.129,-0.82 -2.186,-0.929 z"
   id="path89"
   inkscape:connector-curvature="0"
   style="fill:#044a7f" />
	<g
   id="g91">
		<linearGradient
   id="XMLID_25_"
   gradientUnits="userSpaceOnUse"
   x1="219.1001"
   y1="188.0894"
   x2="226.7977"
   y2="204.80431">
			<stop
   offset="0"
   style="stop-color:#FFBF00"
   id="stop94" />
			<stop
   offset="0.2625"
   style="stop-color:#FFB300"
   id="stop96" />
			<stop
   offset="0.7345"
   style="stop-color:#FF9400"
   id="stop98" />
			<stop
   offset="1"
   style="stop-color:#FF7F00"
   id="stop100" />
		</linearGradient>
		<path
   d="m 213.356,196.611 c 1.025,2.852 3.435,2.292 5.841,2.804 2.554,0.543 3.375,2.127 4.813,4.031 1.076,1.424 3.598,2.639 5.227,1.296 1.751,-1.444 0.609,-4.672 0.39,-6.515 -0.279,-2.354 1.157,-4.734 0.588,-6.905 -0.933,-3.556 -7.102,-5.535 -10.253,-4.231 -3.611,1.494 -8.203,5.078 -6.606,9.52 z"
   id="path102"
   inkscape:connector-curvature="0"
   style="fill:url(#XMLID_25_);stroke:#ff4000" />
		<linearGradient
   id="XMLID_26_"
   gradientUnits="userSpaceOnUse"
   x1="236.3394"
   y1="187.0078"
   x2="232.4769"
   y2="204.78239">
			<stop
   offset="0"
   style="stop-color:#FFBF00"
   id="stop105" />
			<stop
   offset="0.2463"
   style="stop-color:#FFB500"
   id="stop107" />
			<stop
   offset="0.6683"
   style="stop-color:#FF9900"
   id="stop109" />
			<stop
   offset="1"
   style="stop-color:#FF7F00"
   id="stop111" />
		</linearGradient>
		<path
   d="m 227.199,196.797 c 0.076,0.606 0.147,1.16 0.196,1.634 0.226,2.225 -0.381,4.468 2.513,3.103 2.48,-1.17 4.591,-3.216 6.88,-4.707 1.566,-1.02 2.776,-1.813 4.643,-1.898 1.327,-0.06 1.65,0.526 2.07,-1.011 0.22,-0.803 -0.162,-1.85 -0.551,-2.538 -1.145,-2.016 -3.67,-3.14 -5.813,-3.68 -1.664,-0.42 -3.295,-1.402 -5,-1.605 -6.233,-0.744 -5.481,6.33 -4.938,10.702 z"
   id="path113"
   inkscape:connector-curvature="0"
   style="fill:url(#XMLID_26_);stroke:#ff4000" />
		<path
   d="m 231.005,202.208 c 1.079,-0.844 2.177,-1.62 3.599,-1.912 1.93,-0.395 4.297,-0.393 6.21,0.109 1.148,0.301 2.217,1.198 3.439,1.118 3.857,-0.251 3.708,-4.958 2.106,-7.303 -2.153,-3.151 -6.617,-4.39 -10.167,-3.167 -2.725,0.939 -11.01,9.509 -6.829,12.422 0.568,-0.405 1.102,-0.844 1.642,-1.267 z"
   id="path115"
   inkscape:connector-curvature="0"
   style="fill:#ffbf00;stroke:#ff4000" />
		<path
   d="m 228.664,205.95 c 0.512,0.856 1.085,1.58 1.581,1.997 4.589,3.867 16.573,0.107 13.583,-7.157 -0.841,-2.043 -3.229,-2.852 -5.222,-3.573 -3.305,-1.195 -6.235,-0.416 -9.109,1.414 -2.937,1.87 -2.538,4.472 -0.833,7.319 z"
   id="path117"
   inkscape:connector-curvature="0"
   style="fill:#ffbf00;stroke:#ff4000" />
		<path
   d="m 207.17,198.357 c -0.394,1.008 -0.488,2.019 -0.059,2.862 1.822,3.58 5.552,3.773 8.727,2.202 1.307,-0.647 2.558,-1.369 3.998,-1.68 0.553,-0.12 4.023,0.56 3.845,0.749 5.616,-5.93 -7.927,-10.875 -12.4,-8.742 -1.408,0.671 -3.337,2.634 -4.111,4.609 z"
   id="path119"
   inkscape:connector-curvature="0"
   style="fill:#ffbf00;stroke:#ff4000" />
		<path
   d="m 213.875,205.841 c 0.272,0.563 0.731,1.106 1.414,1.608 2.172,1.599 5.662,2.424 8.312,2.357 1.647,-0.042 3.914,-0.178 5.119,-1.48 1.169,-1.263 0.6,-2.417 0.348,-3.939 -0.478,-2.889 -1.817,-7.124 -5.678,-6.436 -3.241,0.578 -11.996,2.756 -9.515,7.89 z"
   id="path121"
   inkscape:connector-curvature="0"
   style="fill:#ffbf00;stroke:#ff4000" />
	</g>
</g>
<g
   id="g123"
   transform="translate(-8.0893812,-83.928272)">
	<path
   d="m 258.621,218.197 c -1.942,-0.199 -10.285,0.354 -7.436,4.122 1.482,1.96 3.927,2.418 6.243,2.215 0.932,6.166 8.415,4.838 12.559,3.25 1.206,-0.462 2.075,-1.153 3.163,-1.12 1.77,0.054 3.482,1.223 5.354,1.333 3.038,0.178 6.103,-0.453 8.655,-2.13 1.777,-1.167 3.457,-3.054 1.513,-4.832 1.259,-0.647 3.058,-1.029 2.718,-2.875 -0.829,-4.51 -11.865,-1.837 -14.398,-1.292 -3.225,0.694 -6.449,1.485 -9.714,1.966 -1.896,0.279 -4.62,0.896 -6.47,0.292 -0.767,-0.25 -1.131,-0.821 -2.187,-0.929 z"
   id="path125"
   inkscape:connector-curvature="0"
   style="fill:#044a7f" />
	<g
   id="g127">
		<linearGradient
   id="XMLID_27_"
   gradientUnits="userSpaceOnUse"
   x1="262.42529"
   y1="205.90089"
   x2="270.12289"
   y2="222.6158">
			<stop
   offset="0"
   style="stop-color:#FFBF00"
   id="stop130" />
			<stop
   offset="0.2625"
   style="stop-color:#FFB300"
   id="stop132" />
			<stop
   offset="0.7345"
   style="stop-color:#FF9400"
   id="stop134" />
			<stop
   offset="1"
   style="stop-color:#FF7F00"
   id="stop136" />
		</linearGradient>
		<path
   d="m 256.681,214.422 c 1.025,2.852 3.435,2.292 5.841,2.804 2.554,0.543 3.375,2.127 4.813,4.031 1.076,1.424 3.598,2.639 5.227,1.296 1.751,-1.444 0.609,-4.672 0.39,-6.515 -0.279,-2.354 1.157,-4.734 0.588,-6.905 -0.933,-3.556 -7.102,-5.535 -10.253,-4.231 -3.611,1.495 -8.203,5.079 -6.606,9.52 z"
   id="path138"
   inkscape:connector-curvature="0"
   style="fill:url(#XMLID_27_);stroke:#ff4000" />
		<linearGradient
   id="XMLID_28_"
   gradientUnits="userSpaceOnUse"
   x1="279.66461"
   y1="204.81931"
   x2="275.80209"
   y2="222.5939">
			<stop
   offset="0"
   style="stop-color:#FFBF00"
   id="stop141" />
			<stop
   offset="0.2463"
   style="stop-color:#FFB500"
   id="stop143" />
			<stop
   offset="0.6683"
   style="stop-color:#FF9900"
   id="stop145" />
			<stop
   offset="1"
   style="stop-color:#FF7F00"
   id="stop147" />
		</linearGradient>
		<path
   d="m 270.524,214.608 c 0.076,0.606 0.147,1.16 0.196,1.634 0.226,2.225 -0.381,4.468 2.513,3.103 2.48,-1.17 4.591,-3.216 6.88,-4.707 1.566,-1.02 2.776,-1.813 4.643,-1.898 1.327,-0.06 1.65,0.526 2.07,-1.011 0.22,-0.803 -0.162,-1.85 -0.551,-2.538 -1.145,-2.016 -3.67,-3.14 -5.813,-3.68 -1.664,-0.42 -3.295,-1.402 -5,-1.605 -6.233,-0.744 -5.481,6.331 -4.938,10.702 z"
   id="path149"
   inkscape:connector-curvature="0"
   style="fill:url(#XMLID_28_);stroke:#ff4000" />
		<path
   d="m 274.33,220.02 c 1.079,-0.844 2.177,-1.62 3.599,-1.912 1.93,-0.395 4.297,-0.393 6.21,0.109 1.148,0.301 2.217,1.198 3.439,1.118 3.857,-0.251 3.708,-4.958 2.106,-7.303 -2.153,-3.151 -6.617,-4.39 -10.167,-3.167 -2.725,0.939 -11.01,9.509 -6.829,12.422 0.568,-0.406 1.103,-0.845 1.642,-1.267 z"
   id="path151"
   inkscape:connector-curvature="0"
   style="fill:#ffbf00;stroke:#ff4000" />
		<path
   d="m 271.989,223.762 c 0.512,0.856 1.085,1.58 1.581,1.997 4.589,3.867 16.573,0.107 13.583,-7.157 -0.841,-2.043 -3.229,-2.852 -5.222,-3.573 -3.305,-1.195 -6.235,-0.416 -9.109,1.414 -2.937,1.87 -2.537,4.472 -0.833,7.319 z"
   id="path153"
   inkscape:connector-curvature="0"
   style="fill:#ffbf00;stroke:#ff4000" />
		<path
   d="m 250.495,216.168 c -0.394,1.008 -0.488,2.019 -0.059,2.862 1.822,3.58 5.552,3.773 8.727,2.202 1.307,-0.647 2.558,-1.369 3.998,-1.68 0.553,-0.12 4.023,0.56 3.845,0.749 5.616,-5.93 -7.927,-10.875 -12.4,-8.742 -1.408,0.672 -3.337,2.635 -4.111,4.609 z"
   id="path155"
   inkscape:connector-curvature="0"
   style="fill:#ffbf00;stroke:#ff4000" />
		<path
   d="m 257.2,223.653 c 0.272,0.563 0.731,1.106 1.414,1.608 2.172,1.599 5.662,2.424 8.312,2.357 1.647,-0.042 3.914,-0.178 5.119,-1.48 1.169,-1.263 0.6,-2.417 0.348,-3.939 -0.478,-2.889 -1.817,-7.124 -5.678,-6.436 -3.241,0.577 -11.996,2.755 -9.515,7.89 z"
   id="path157"
   inkscape:connector-curvature="0"
   style="fill:#ffbf00;stroke:#ff4000" />
	</g>
</g>
<g
   id="g159"
   transform="translate(-8.0893812,-83.928272)">
	<path
   d="m 176.621,222.197 c -1.942,-0.199 -10.285,0.354 -7.436,4.122 1.482,1.96 3.927,2.418 6.243,2.215 0.932,6.166 8.415,4.838 12.559,3.25 1.206,-0.462 2.075,-1.153 3.163,-1.12 1.77,0.054 3.482,1.223 5.354,1.333 3.038,0.178 6.103,-0.453 8.655,-2.13 1.777,-1.167 3.457,-3.054 1.513,-4.832 1.259,-0.647 3.058,-1.029 2.718,-2.875 -0.829,-4.51 -11.865,-1.837 -14.398,-1.292 -3.225,0.694 -6.449,1.485 -9.714,1.966 -1.896,0.279 -4.62,0.896 -6.47,0.292 -0.767,-0.25 -1.131,-0.821 -2.187,-0.929 z"
   id="path161"
   inkscape:connector-curvature="0"
   style="fill:#044a7f" />
	<g
   id="g163">
		<linearGradient
   id="XMLID_29_"
   gradientUnits="userSpaceOnUse"
   x1="180.42529"
   y1="209.90089"
   x2="188.12289"
   y2="226.6158">
			<stop
   offset="0"
   style="stop-color:#FFBF00"
   id="stop166" />
			<stop
   offset="0.2625"
   style="stop-color:#FFB300"
   id="stop168" />
			<stop
   offset="0.7345"
   style="stop-color:#FF9400"
   id="stop170" />
			<stop
   offset="1"
   style="stop-color:#FF7F00"
   id="stop172" />
		</linearGradient>
		<path
   d="m 174.681,218.422 c 1.025,2.852 3.435,2.292 5.841,2.804 2.554,0.543 3.375,2.127 4.813,4.031 1.076,1.424 3.598,2.639 5.227,1.296 1.751,-1.444 0.609,-4.672 0.39,-6.515 -0.279,-2.354 1.157,-4.734 0.588,-6.905 -0.933,-3.556 -7.102,-5.535 -10.253,-4.231 -3.611,1.495 -8.203,5.079 -6.606,9.52 z"
   id="path174"
   inkscape:connector-curvature="0"
   style="fill:url(#XMLID_29_);stroke:#ff4000" />
		<linearGradient
   id="XMLID_30_"
   gradientUnits="userSpaceOnUse"
   x1="197.6646"
   y1="208.81931"
   x2="193.80209"
   y2="226.5939">
			<stop
   offset="0"
   style="stop-color:#FFBF00"
   id="stop177" />
			<stop
   offset="0.2463"
   style="stop-color:#FFB500"
   id="stop179" />
			<stop
   offset="0.6683"
   style="stop-color:#FF9900"
   id="stop181" />
			<stop
   offset="1"
   style="stop-color:#FF7F00"
   id="stop183" />
		</linearGradient>
		<path
   d="m 188.524,218.608 c 0.076,0.606 0.147,1.16 0.196,1.634 0.226,2.225 -0.381,4.468 2.513,3.103 2.48,-1.17 4.591,-3.216 6.88,-4.707 1.566,-1.02 2.776,-1.813 4.643,-1.898 1.327,-0.06 1.65,0.526 2.07,-1.011 0.22,-0.803 -0.162,-1.85 -0.551,-2.538 -1.145,-2.016 -3.67,-3.14 -5.813,-3.68 -1.664,-0.42 -3.295,-1.402 -5,-1.605 -6.233,-0.744 -5.481,6.331 -4.938,10.702 z"
   id="path185"
   inkscape:connector-curvature="0"
   style="fill:url(#XMLID_30_);stroke:#ff4000" />
		<path
   d="m 192.33,224.02 c 1.079,-0.844 2.177,-1.62 3.599,-1.912 1.93,-0.395 4.297,-0.393 6.21,0.109 1.148,0.301 2.217,1.198 3.439,1.118 3.857,-0.251 3.708,-4.958 2.106,-7.303 -2.153,-3.151 -6.617,-4.39 -10.167,-3.167 -2.725,0.939 -11.01,9.509 -6.829,12.422 0.568,-0.406 1.103,-0.845 1.642,-1.267 z"
   id="path187"
   inkscape:connector-curvature="0"
   style="fill:#ffbf00;stroke:#ff4000" />
		<path
   d="m 189.989,227.762 c 0.512,0.856 1.085,1.58 1.581,1.997 4.589,3.867 16.573,0.107 13.583,-7.157 -0.841,-2.043 -3.229,-2.852 -5.222,-3.573 -3.305,-1.195 -6.235,-0.416 -9.109,1.414 -2.937,1.87 -2.537,4.472 -0.833,7.319 z"
   id="path189"
   inkscape:connector-curvature="0"
   style="fill:#ffbf00;stroke:#ff4000" />
		<path
   d="m 168.495,220.168 c -0.394,1.008 -0.488,2.019 -0.059,2.862 1.822,3.58 5.552,3.773 8.727,2.202 1.307,-0.647 2.558,-1.369 3.998,-1.68 0.553,-0.12 4.023,0.56 3.845,0.749 5.616,-5.93 -7.927,-10.875 -12.4,-8.742 -1.408,0.672 -3.337,2.635 -4.111,4.609 z"
   id="path191"
   inkscape:connector-curvature="0"
   style="fill:#ffbf00;stroke:#ff4000" />
		<path
   d="m 175.2,227.653 c 0.272,0.563 0.731,1.106 1.414,1.608 2.172,1.599 5.662,2.424 8.312,2.357 1.647,-0.042 3.914,-0.178 5.119,-1.48 1.169,-1.263 0.6,-2.417 0.348,-3.939 -0.478,-2.889 -1.817,-7.124 -5.678,-6.436 -3.241,0.577 -11.996,2.755 -9.515,7.89 z"
   id="path193"
   inkscape:connector-curvature="0"
   style="fill:#ffbf00;stroke:#ff4000" />
	</g>
</g>
<g
   id="g195"
   transform="translate(-8.0893812,-83.928272)">
	<path
   d="m 312.602,225.449 c -1.941,-0.199 -10.283,0.354 -7.436,4.122 1.482,1.96 3.928,2.418 6.244,2.215 0.932,6.166 8.415,4.838 12.56,3.25 1.205,-0.462 2.074,-1.153 3.162,-1.12 1.77,0.054 3.482,1.223 5.354,1.333 3.039,0.178 6.104,-0.453 8.656,-2.13 1.777,-1.167 3.457,-3.054 1.512,-4.832 1.26,-0.647 3.059,-1.029 2.719,-2.875 -0.83,-4.51 -11.865,-1.837 -14.398,-1.292 -3.225,0.694 -6.449,1.485 -9.715,1.966 -1.896,0.279 -4.62,0.896 -6.472,0.292 -0.765,-0.25 -1.13,-0.821 -2.186,-0.929 z"
   id="path197"
   inkscape:connector-curvature="0"
   style="fill:#044a7f" />
	<g
   id="g199">
		<linearGradient
   id="XMLID_31_"
   gradientUnits="userSpaceOnUse"
   x1="316.40631"
   y1="213.1528"
   x2="324.10391"
   y2="229.86771">
			<stop
   offset="0"
   style="stop-color:#FFBF00"
   id="stop202" />
			<stop
   offset="0.2625"
   style="stop-color:#FFB300"
   id="stop204" />
			<stop
   offset="0.7345"
   style="stop-color:#FF9400"
   id="stop206" />
			<stop
   offset="1"
   style="stop-color:#FF7F00"
   id="stop208" />
		</linearGradient>
		<path
   d="m 310.662,221.674 c 1.025,2.852 3.436,2.292 5.842,2.804 2.554,0.543 3.376,2.127 4.813,4.031 1.076,1.424 3.598,2.639 5.227,1.296 1.752,-1.444 0.609,-4.672 0.391,-6.515 -0.279,-2.354 1.158,-4.734 0.588,-6.905 -0.932,-3.556 -7.102,-5.535 -10.253,-4.231 -3.612,1.495 -8.204,5.079 -6.608,9.52 z"
   id="path210"
   inkscape:connector-curvature="0"
   style="fill:url(#XMLID_31_);stroke:#ff4000" />
		<linearGradient
   id="XMLID_32_"
   gradientUnits="userSpaceOnUse"
   x1="333.64749"
   y1="212.0713"
   x2="329.785"
   y2="229.8459">
			<stop
   offset="0"
   style="stop-color:#FFBF00"
   id="stop213" />
			<stop
   offset="0.2463"
   style="stop-color:#FFB500"
   id="stop215" />
			<stop
   offset="0.6683"
   style="stop-color:#FF9900"
   id="stop217" />
			<stop
   offset="1"
   style="stop-color:#FF7F00"
   id="stop219" />
		</linearGradient>
		<path
   d="m 324.507,221.86 c 0.076,0.606 0.146,1.16 0.195,1.634 0.227,2.225 -0.381,4.468 2.514,3.103 2.479,-1.17 4.59,-3.216 6.879,-4.707 1.566,-1.02 2.777,-1.813 4.643,-1.898 1.328,-0.06 1.65,0.526 2.07,-1.011 0.221,-0.803 -0.162,-1.85 -0.551,-2.538 -1.145,-2.016 -3.67,-3.14 -5.813,-3.68 -1.664,-0.42 -3.295,-1.402 -5,-1.605 -6.232,-0.744 -5.48,6.331 -4.937,10.702 z"
   id="path221"
   inkscape:connector-curvature="0"
   style="fill:url(#XMLID_32_);stroke:#ff4000" />
		<path
   d="m 328.312,227.271 c 1.08,-0.844 2.178,-1.62 3.6,-1.912 1.93,-0.395 4.297,-0.393 6.209,0.109 1.148,0.301 2.217,1.198 3.439,1.118 3.857,-0.251 3.709,-4.958 2.107,-7.303 -2.154,-3.151 -6.617,-4.39 -10.168,-3.167 -2.725,0.939 -11.01,9.509 -6.828,12.422 0.566,-0.405 1.101,-0.844 1.641,-1.267 z"
   id="path223"
   inkscape:connector-curvature="0"
   style="fill:#ffbf00;stroke:#ff4000" />
		<path
   d="m 325.972,231.014 c 0.512,0.856 1.086,1.58 1.58,1.997 4.59,3.867 16.574,0.107 13.584,-7.157 -0.842,-2.043 -3.229,-2.852 -5.223,-3.573 -3.305,-1.195 -6.234,-0.416 -9.109,1.414 -2.936,1.87 -2.537,4.472 -0.832,7.319 z"
   id="path225"
   inkscape:connector-curvature="0"
   style="fill:#ffbf00;stroke:#ff4000" />
		<path
   d="m 304.477,223.42 c -0.394,1.008 -0.488,2.019 -0.059,2.862 1.822,3.58 5.553,3.773 8.727,2.202 1.307,-0.647 2.559,-1.369 3.998,-1.68 0.553,-0.12 4.024,0.56 3.845,0.749 5.617,-5.93 -7.927,-10.875 -12.399,-8.742 -1.409,0.672 -3.338,2.635 -4.112,4.609 z"
   id="path227"
   inkscape:connector-curvature="0"
   style="fill:#ffbf00;stroke:#ff4000" />
		<path
   d="m 311.182,230.905 c 0.271,0.563 0.732,1.106 1.414,1.608 2.172,1.599 5.662,2.424 8.312,2.357 1.648,-0.042 3.914,-0.178 5.119,-1.48 1.17,-1.263 0.602,-2.417 0.35,-3.939 -0.479,-2.889 -1.818,-7.124 -5.678,-6.436 -3.244,0.577 -11.998,2.755 -9.517,7.89 z"
   id="path229"
   inkscape:connector-curvature="0"
   style="fill:#ffbf00;stroke:#ff4000" />
	</g>
</g>
<g
   id="g231"
   transform="translate(-8.0893812,-83.928272)">
	
		<linearGradient
   id="XMLID_33_"
   gradientUnits="userSpaceOnUse"
   x1="206.9272"
   y1="150.7939"
   x2="216.29491"
   y2="171.1351"
   gradientTransform="matrix(-1,0,0,-1,441.2402,436.3594)">
		<stop
   offset="0"
   style="stop-color:#FFBF00"
   id="stop234" />
		<stop
   offset="0.1524"
   style="stop-color:#FFB300"
   id="stop236" />
		<stop
   offset="0.4275"
   style="stop-color:#FF9300"
   id="stop238" />
		<stop
   offset="0.7912"
   style="stop-color:#FF6000"
   id="stop240" />
		<stop
   offset="1"
   style="stop-color:#FF4000"
   id="stop242" />
	</linearGradient>
	<path
   d="m 238.758,282.624 c -0.296,-0.827 -2.049,-0.96 -2.759,-1.157 -1.359,-0.377 -2.709,-0.678 -3.627,-1.872 -1.225,-1.594 -1.116,-3.319 -0.945,-5.122 0.104,-1.095 -0.286,-2.323 -0.335,-3.442 -0.051,-1.168 -0.02,-2.339 -0.02,-3.508 0,-1.002 -0.175,-2.181 -0.008,-3.166 0.218,-1.287 0.862,-1.419 -0.826,-1.834 -1.362,-0.335 -2.843,-0.411 -3.464,1.058 -0.695,1.642 -1.013,3.394 -1.026,5.193 -0.015,2.136 -0.287,4.26 -0.285,6.397 0.001,2.019 0.301,4.112 0.115,6.12 -0.234,2.527 1.546,4.223 3.89,4.707 2.656,0.548 5.848,0.328 8.067,-1.343 0.52,-0.392 1.502,-1.252 1.223,-2.031 z"
   id="path244"
   inkscape:connector-curvature="0"
   style="fill:url(#XMLID_33_);stroke:#ff4000" />
	
		<linearGradient
   id="XMLID_34_"
   gradientUnits="userSpaceOnUse"
   x1="219.7549"
   y1="151.4688"
   x2="214.14639"
   y2="177.2782"
   gradientTransform="matrix(-1,0,0,-1,441.2402,436.3594)">
		<stop
   offset="0"
   style="stop-color:#FFBF00"
   id="stop247" />
		<stop
   offset="0.1457"
   style="stop-color:#FFB500"
   id="stop249" />
		<stop
   offset="0.3963"
   style="stop-color:#FF9900"
   id="stop251" />
		<stop
   offset="0.7193"
   style="stop-color:#FF6C00"
   id="stop253" />
		<stop
   offset="1"
   style="stop-color:#FF4000"
   id="stop255" />
	</linearGradient>
	<path
   d="m 223.708,273.905 c -0.005,0.051 -0.01,0.103 -0.015,0.154 -0.152,1.642 0.15,3.196 -1.018,4.451 -0.589,0.634 -1.259,1.187 -1.95,1.705 -0.553,0.415 -1.679,0.87 -2.056,1.436 -1.538,2.314 3.522,3.862 5.088,3.441 2.05,-0.551 2.285,-2.87 2.313,-4.656 0.032,-2.079 0.098,-4.088 0.207,-6.156 0.143,-2.711 0.682,-5.438 0.577,-8.157 -0.063,-1.628 -0.071,-3.876 -1.835,-4.62 -0.903,-0.381 -2.484,-0.486 -2.463,0.818 0.015,0.958 1.109,1.607 1.369,2.494 0.39,1.33 0.26,2.978 0.2,4.344 -0.071,1.588 -0.268,3.165 -0.417,4.746 z"
   id="path257"
   inkscape:connector-curvature="0"
   style="fill:url(#XMLID_34_);stroke:#ff4000" />
	<path
   d="m 221.442,277.711 c -1.461,1.566 -4.718,-0.481 -6.463,-0.983 -1.298,-0.374 -4.646,-1.678 -4.905,0.269 -0.398,2.995 2.987,6.667 5.547,7.629 2.119,0.796 4.798,0.818 6.65,-0.593 2.461,-1.875 2.085,-5.117 2.149,-7.92 0.046,-1.984 0.03,-3.951 -0.03,-5.906 -0.059,-1.926 0.362,-4.678 -0.352,-6.473 -0.545,-1.372 -2.09,-1.159 -3.475,-1.284 -1.464,-0.132 -3.418,0.882 -1.201,1.64 1.591,0.544 2.538,0.229 2.943,2.105 0.278,1.284 0.289,2.735 0.417,4.002 0.168,1.633 0.29,5.831 -1.28,7.514 z"
   id="path259"
   inkscape:connector-curvature="0"
   style="fill:#ffbf00;stroke:#ff4000" />
	<path
   d="m 243.61,285.02 c 0.668,-0.905 0.967,-1.902 0.242,-2.718 -0.707,-0.795 -2.369,-0.605 -3.304,-0.709 -1.585,-0.178 -3.126,-0.666 -4.723,-0.741 -1.239,-0.058 -2.9,0.316 -3.713,-0.959 -0.913,-1.432 -0.688,-3.5 -0.826,-5.114 -0.175,-2.035 0.05,-4.067 -0.031,-6.044 -0.108,-2.625 1.712,-1.018 2.808,-2.386 -0.767,-1.585 -4.096,-3.329 -5.064,-1.003 -0.369,0.887 -0.057,2.638 -0.08,3.62 -0.061,2.66 -0.109,5.291 -0.221,7.928 -0.121,2.829 -0.061,5.239 1.237,7.79 1.946,3.827 7.329,4.471 10.874,2.694 0.743,-0.374 2.023,-1.304 2.801,-2.358 z"
   id="path261"
   inkscape:connector-curvature="0"
   style="fill:#ffbf00;stroke:#ff4000" />
	<linearGradient
   id="XMLID_35_"
   gradientUnits="userSpaceOnUse"
   x1="218.03081"
   y1="234.9097"
   x2="229.30389"
   y2="259.38849">
		<stop
   offset="0"
   style="stop-color:#FFBF00"
   id="stop264" />
		<stop
   offset="0.2625"
   style="stop-color:#FFB300"
   id="stop266" />
		<stop
   offset="0.7345"
   style="stop-color:#FF9400"
   id="stop268" />
		<stop
   offset="1"
   style="stop-color:#FF7F00"
   id="stop270" />
	</linearGradient>
	<path
   d="m 212.178,243.195 c 1.025,2.852 3.435,2.292 5.84,2.804 5.597,1.191 5.147,6.973 5.147,11.333 0,1.002 0.175,2.181 0.008,3.166 -0.218,1.288 -0.862,1.419 0.826,1.834 3.183,0.782 3.849,-0.628 3.667,-3.625 -0.146,-2.404 -0.81,-5.342 0.392,-7.5 1.266,-2.272 0.696,-3.829 0.392,-6.395 -0.279,-2.354 1.157,-4.734 0.588,-6.905 -0.933,-3.556 -7.102,-5.535 -10.253,-4.231 -3.612,1.494 -8.204,5.078 -6.607,9.519 z"
   id="path272"
   inkscape:connector-curvature="0"
   style="fill:url(#XMLID_35_);stroke:#ff4000" />
	<linearGradient
   id="XMLID_36_"
   gradientUnits="userSpaceOnUse"
   x1="235.1548"
   y1="233.61571"
   x2="227.9319"
   y2="266.8548">
		<stop
   offset="0"
   style="stop-color:#FFBF00"
   id="stop275" />
		<stop
   offset="0.2463"
   style="stop-color:#FFB500"
   id="stop277" />
		<stop
   offset="0.6683"
   style="stop-color:#FF9900"
   id="stop279" />
		<stop
   offset="1"
   style="stop-color:#FF7F00"
   id="stop281" />
	</linearGradient>
	<path
   d="m 226.021,243.382 c 0.633,5.065 0.966,10.204 1.487,15.291 0.178,1.741 -0.077,3.998 1.837,4.805 0.903,0.38 2.484,0.486 2.463,-0.818 -0.011,-0.667 -1.227,-1.985 -1.429,-2.792 -0.708,-2.816 -1.352,-6 -0.908,-8.904 0.566,-3.708 3.172,-5.62 6.139,-7.553 1.566,-1.02 2.776,-1.813 4.643,-1.898 1.327,-0.06 1.65,0.526 2.07,-1.011 0.22,-0.803 -0.162,-1.85 -0.551,-2.538 -1.145,-2.016 -3.67,-3.14 -5.813,-3.68 -1.664,-0.42 -3.295,-1.402 -5,-1.605 -6.233,-0.744 -5.481,6.331 -4.938,10.703 z"
   id="path283"
   inkscape:connector-curvature="0"
   style="fill:url(#XMLID_36_);stroke:#ff4000" />
	<path
   d="m 230.598,249.186 c 1.547,-3.139 6.135,-2.956 9.037,-2.196 1.148,0.301 2.217,1.198 3.439,1.118 3.857,-0.251 3.708,-4.958 2.106,-7.303 -2.153,-3.151 -6.617,-4.39 -10.167,-3.167 -3.307,1.139 -6.121,5.915 -6.551,9.231 -0.195,1.502 -0.13,3.061 -0.13,4.596 0,1.985 0.061,3.951 0.166,5.904 0.103,1.924 -0.254,4.685 0.5,6.463 0.577,1.359 2.116,1.111 3.504,1.204 1.467,0.098 3.396,-0.96 1.163,-1.667 -1.604,-0.507 -2.542,-0.17 -2.991,-2.037 -0.308,-1.277 -0.351,-2.728 -0.509,-3.992 -0.318,-2.537 -0.735,-5.726 0.415,-8.116 0.006,-0.013 0.012,-0.026 0.018,-0.038 z"
   id="path285"
   inkscape:connector-curvature="0"
   style="fill:#ffbf00;stroke:#ff4000" />
	<path
   d="m 208.494,243.292 c 0.455,0.653 1.35,0.766 2.497,0.947 2.205,0.349 4.419,1.041 6.508,1.75 1.328,0.452 2.605,0.831 3.213,2.175 0.682,1.509 0.611,3.174 0.788,4.792 0.222,2.031 0.043,4.067 0.17,6.042 0.168,2.623 -1.688,1.057 -2.752,2.45 0.804,1.567 4.171,3.234 5.086,0.887 0.349,-0.896 -0.004,-2.639 -0.004,-3.621 0,-2.66 -0.013,-5.292 0.039,-7.931 0.052,-2.65 0.055,-5.635 -1.511,-7.909 -1.776,-2.58 -4.981,-5.458 -8.162,-6.051 -3.244,-0.605 -6.122,1.765 -6.2,5.009 -0.017,0.672 0.101,1.133 0.328,1.46 z"
   id="path287"
   inkscape:connector-curvature="0"
   style="fill:#ffbf00;stroke:#ff4000" />
</g>
<g
   id="g289"
   transform="translate(-8.0893812,-83.928272)">
	<path
   d="m 295.659,254.297 c 0.001,0.153 0.011,0.303 0.032,0.449 0.176,1.224 0.779,1.325 1.833,1.5 1.954,0.325 4.599,1.147 6.536,0.352 1.804,-0.741 3.947,-3.597 3.06,-5.628 -1.173,-2.684 -7.555,-1.735 -9.437,-0.556 -1.132,0.71 -2.028,2.428 -2.024,3.883 z"
   id="path291"
   inkscape:connector-curvature="0"
   style="fill:#044a7f" />
	
		<linearGradient
   id="XMLID_37_"
   gradientUnits="userSpaceOnUse"
   x1="148.813"
   y1="140.64549"
   x2="158.3959"
   y2="161.4541"
   gradientTransform="matrix(-1,0,0,-1,441.2402,436.3594)">
		<stop
   offset="0"
   style="stop-color:#FFBF00"
   id="stop294" />
		<stop
   offset="0.1524"
   style="stop-color:#FFB300"
   id="stop296" />
		<stop
   offset="0.4275"
   style="stop-color:#FF9300"
   id="stop298" />
		<stop
   offset="0.7912"
   style="stop-color:#FF6000"
   id="stop300" />
		<stop
   offset="1"
   style="stop-color:#FF4000"
   id="stop302" />
	</linearGradient>
	<path
   d="m 296.754,292.768 c -0.296,-0.849 -2.049,-0.986 -2.759,-1.188 -1.359,-0.388 -2.709,-0.696 -3.627,-1.922 -1.225,-1.637 -1.116,-3.408 -0.945,-5.26 0.104,-1.124 -0.285,-2.386 -0.334,-3.534 -0.052,-1.2 -0.02,-2.402 -0.02,-3.603 0,-1.029 -0.176,-2.239 -0.008,-3.251 0.217,-1.322 0.861,-1.457 -0.826,-1.883 -1.362,-0.344 -2.843,-0.422 -3.464,1.086 -0.695,1.687 -1.013,3.486 -1.026,5.333 -0.015,2.194 -0.287,4.375 -0.285,6.569 0.001,2.073 0.301,4.223 0.115,6.284 -0.234,2.596 1.546,4.337 3.89,4.834 2.656,0.563 5.848,0.337 8.068,-1.379 0.518,-0.403 1.5,-1.286 1.221,-2.086 z"
   id="path304"
   inkscape:connector-curvature="0"
   style="fill:url(#XMLID_37_);stroke:#ff4000" />
	
		<linearGradient
   id="XMLID_38_"
   gradientUnits="userSpaceOnUse"
   x1="161.8291"
   y1="141.2769"
   x2="156.073"
   y2="167.7659"
   gradientTransform="matrix(-1,0,0,-1,441.2402,436.3594)">
		<stop
   offset="0"
   style="stop-color:#FFBF00"
   id="stop307" />
		<stop
   offset="0.1457"
   style="stop-color:#FFB500"
   id="stop309" />
		<stop
   offset="0.3963"
   style="stop-color:#FF9900"
   id="stop311" />
		<stop
   offset="0.7193"
   style="stop-color:#FF6C00"
   id="stop313" />
		<stop
   offset="1"
   style="stop-color:#FF4000"
   id="stop315" />
	</linearGradient>
	<path
   d="m 281.704,283.814 c -0.005,0.053 -0.01,0.106 -0.015,0.159 -0.152,1.686 0.15,3.282 -1.018,4.571 -0.589,0.651 -1.259,1.219 -1.95,1.75 -0.553,0.426 -1.679,0.893 -2.056,1.475 -1.538,2.377 3.522,3.966 5.088,3.534 2.05,-0.566 2.285,-2.947 2.313,-4.781 0.032,-2.134 0.098,-4.198 0.207,-6.322 0.143,-2.785 0.682,-5.584 0.577,-8.376 -0.063,-1.672 -0.071,-3.981 -1.835,-4.745 -0.903,-0.391 -2.484,-0.5 -2.463,0.84 0.015,0.983 1.109,1.65 1.369,2.562 0.39,1.366 0.26,3.058 0.2,4.46 -0.071,1.63 -0.267,3.249 -0.417,4.873 z"
   id="path317"
   inkscape:connector-curvature="0"
   style="fill:url(#XMLID_38_);stroke:#ff4000" />
	<path
   d="m 279.438,287.723 c -1.461,1.608 -4.718,-0.495 -6.463,-1.01 -1.298,-0.384 -4.646,-1.724 -4.905,0.276 -0.398,3.076 2.987,6.846 5.547,7.834 2.119,0.818 4.798,0.84 6.65,-0.609 2.461,-1.926 2.085,-5.255 2.149,-8.133 0.046,-2.038 0.03,-4.057 -0.03,-6.065 -0.059,-1.978 0.362,-4.804 -0.352,-6.647 -0.545,-1.409 -2.09,-1.19 -3.475,-1.319 -1.464,-0.135 -3.418,0.906 -1.201,1.684 1.591,0.559 2.538,0.234 2.943,2.162 0.278,1.318 0.289,2.808 0.417,4.11 0.168,1.678 0.29,5.989 -1.28,7.717 z"
   id="path319"
   inkscape:connector-curvature="0"
   style="fill:#ffbf00;stroke:#ff4000" />
	<path
   d="m 301.606,295.228 c 0.668,-0.93 0.967,-1.954 0.242,-2.791 -0.707,-0.817 -2.369,-0.621 -3.305,-0.729 -1.584,-0.183 -3.125,-0.684 -4.723,-0.761 -1.238,-0.06 -2.9,0.325 -3.713,-0.985 -0.913,-1.471 -0.688,-3.595 -0.826,-5.251 -0.175,-2.09 0.051,-4.176 -0.031,-6.207 -0.107,-2.696 1.712,-1.045 2.809,-2.451 -0.768,-1.627 -4.096,-3.419 -5.064,-1.03 -0.369,0.911 -0.057,2.709 -0.08,3.717 -0.061,2.731 -0.109,5.434 -0.221,8.142 -0.121,2.905 -0.061,5.38 1.237,7.999 1.947,3.93 7.329,4.592 10.875,2.767 0.742,-0.382 2.022,-1.337 2.8,-2.42 z"
   id="path321"
   inkscape:connector-curvature="0"
   style="fill:#ffbf00;stroke:#ff4000" />
	<linearGradient
   id="XMLID_39_"
   gradientUnits="userSpaceOnUse"
   x1="275.96829"
   y1="243.78999"
   x2="287.50891"
   y2="268.84979">
		<stop
   offset="0"
   style="stop-color:#FFBF00"
   id="stop324" />
		<stop
   offset="0.2625"
   style="stop-color:#FFB300"
   id="stop326" />
		<stop
   offset="0.7345"
   style="stop-color:#FF9400"
   id="stop328" />
		<stop
   offset="1"
   style="stop-color:#FF7F00"
   id="stop330" />
	</linearGradient>
	<path
   d="m 270.174,252.277 c 1.025,2.928 3.435,2.354 5.84,2.879 5.597,1.223 5.147,7.161 5.147,11.638 0,1.029 0.175,2.239 0.008,3.251 -0.218,1.323 -0.862,1.458 0.826,1.884 3.183,0.803 3.849,-0.646 3.667,-3.723 -0.146,-2.469 -0.81,-5.486 0.392,-7.702 1.266,-2.333 0.696,-3.932 0.392,-6.567 -0.279,-2.417 1.157,-4.861 0.588,-7.091 -0.933,-3.651 -7.102,-5.684 -10.253,-4.345 -3.612,1.535 -8.204,5.215 -6.607,9.776 z"
   id="path332"
   inkscape:connector-curvature="0"
   style="fill:url(#XMLID_39_);stroke:#ff4000" />
	<linearGradient
   id="XMLID_40_"
   gradientUnits="userSpaceOnUse"
   x1="293.1821"
   y1="242.4258"
   x2="285.76691"
   y2="276.54971">
		<stop
   offset="0"
   style="stop-color:#FFBF00"
   id="stop335" />
		<stop
   offset="0.2463"
   style="stop-color:#FFB500"
   id="stop337" />
		<stop
   offset="0.6683"
   style="stop-color:#FF9900"
   id="stop339" />
		<stop
   offset="1"
   style="stop-color:#FF7F00"
   id="stop341" />
	</linearGradient>
	<path
   d="m 284.017,252.469 c 0.633,5.202 0.966,10.479 1.487,15.703 0.178,1.788 -0.077,4.105 1.837,4.934 0.903,0.391 2.484,0.499 2.463,-0.84 -0.01,-0.685 -1.227,-2.039 -1.429,-2.867 -0.708,-2.893 -1.352,-6.162 -0.908,-9.144 0.566,-3.808 3.172,-5.771 6.14,-7.756 1.565,-1.047 2.775,-1.862 4.643,-1.949 1.326,-0.062 1.65,0.541 2.069,-1.038 0.22,-0.825 -0.161,-1.899 -0.552,-2.605 -1.145,-2.071 -3.67,-3.225 -5.813,-3.779 -1.664,-0.432 -3.295,-1.44 -5,-1.648 -6.232,-0.766 -5.48,6.499 -4.937,10.989 z"
   id="path343"
   inkscape:connector-curvature="0"
   style="fill:url(#XMLID_40_);stroke:#ff4000" />
	<path
   d="m 288.761,258.262 c 1.547,-3.224 6.135,-3.036 9.038,-2.255 1.146,0.309 2.217,1.23 3.439,1.148 3.855,-0.258 3.707,-5.091 2.105,-7.5 -2.154,-3.236 -6.617,-4.508 -10.168,-3.251 -3.307,1.169 -6.12,6.074 -6.55,9.479 -0.195,1.543 -0.13,3.144 -0.13,4.72 0,2.039 0.061,4.057 0.166,6.063 0.103,1.976 -0.254,4.811 0.5,6.637 0.577,1.396 2.116,1.141 3.504,1.236 1.467,0.101 3.396,-0.986 1.162,-1.711 -1.604,-0.521 -2.541,-0.175 -2.99,-2.092 -0.308,-1.311 -0.352,-2.801 -0.51,-4.099 -0.318,-2.605 -0.735,-5.88 0.414,-8.334 0.008,-0.014 0.013,-0.028 0.02,-0.041 z"
   id="path345"
   inkscape:connector-curvature="0"
   style="fill:#ffbf00;stroke:#ff4000" />
	<path
   d="m 266.49,252.376 c 0.455,0.67 1.35,0.787 2.497,0.973 2.205,0.358 4.419,1.068 6.508,1.797 1.328,0.464 2.605,0.854 3.213,2.234 0.682,1.55 0.611,3.26 0.788,4.921 0.222,2.085 0.043,4.176 0.17,6.204 0.168,2.693 -1.688,1.085 -2.752,2.516 0.804,1.609 4.171,3.321 5.086,0.911 0.349,-0.92 -0.004,-2.71 -0.004,-3.718 0,-2.732 -0.013,-5.435 0.039,-8.145 0.052,-2.721 0.055,-5.787 -1.511,-8.123 -1.776,-2.649 -4.981,-5.604 -8.162,-6.214 -3.244,-0.622 -6.122,1.812 -6.2,5.144 -0.016,0.691 0.101,1.165 0.328,1.5 z"
   id="path347"
   inkscape:connector-curvature="0"
   style="fill:#ffbf00;stroke:#ff4000" />
</g>
<text
   font-size="12"
   id="text349"
   style="font-size:12px;font-family:Myriad-Roman"
   x="43.909618"
   y="214.56973">Intercellular space</text>

<line
   x1="69.909622"
   y1="202.06972"
   x2="93.909622"
   y2="148.06973"
   id="line351"
   style="fill:none;stroke:#000000" />
<text
   font-size="12"
   id="text353"
   style="font-size:12px;font-family:Myriad-Roman"
   x="175.07661"
   y="249.73633">Hydrophilic channel</text>

<polyline
   points="227.831,318.998 226.498,278.332 228.498,280.998 "
   id="polyline355"
   style="fill:none;stroke:#000000"
   transform="translate(-8.0893812,-83.928272)" />
<text
   font-size="12"
   id="text357"
   style="font-size:12px;font-family:Myriad-Roman"
   x="89.408218"
   y="241.40283">2-4 nm space</text>

<line
   x1="175.74161"
   y1="171.73672"
   x2="141.07462"
   y2="231.06972"
   id="line359"
   style="fill:none;stroke:#000000" />
<text
   font-size="12"
   id="text361"
   style="font-size:12px;font-family:Myriad-Roman"
   x="64.243118"
   y="8.7363281">Connexon </text>

<text
   font-size="12"
   id="text363"
   style="font-size:12px;font-family:Myriad-Roman"
   x="-0.92578125"
   y="65.069328">Plasma membranes</text>

<polyline
   points="71.166,251.665 45.166,155.665 85.166,204.331 "
   id="polyline365"
   style="fill:none;stroke:#000000"
   transform="translate(-8.0893812,-83.928272)" />
<text
   font-size="12"
   id="text367"
   style="font-size:12px;font-family:Myriad-Roman"
   x="17.409618"
   y="25.069729">connexin monomer</text>

<polyline
   points="242.999,182.998 231.999,175.498 236.499,165.498 130.999,90.998 238.499,163.998   252.999,158.498 277.499,163.498 "
   id="polyline369"
   style="fill:none;stroke:#000000"
   transform="translate(-8.0893812,-83.928272)" />
<line
   x1="115.90962"
   y1="23.069729"
   x2="212.90961"
   y2="107.56973"
   id="line371"
   style="fill:none;stroke:#000000" />





















































</svg>