<?xml version="1.0" encoding="UTF-8" standalone="no"?>
<!-- Created with Inkscape (http://www.inkscape.org/) -->

<svg
   xmlns:dc="http://purl.org/dc/elements/1.1/"
   xmlns:cc="http://creativecommons.org/ns#"
   xmlns:rdf="http://www.w3.org/1999/02/22-rdf-syntax-ns#"
   xmlns:svg="http://www.w3.org/2000/svg"
   xmlns="http://www.w3.org/2000/svg"
   xmlns:xlink="http://www.w3.org/1999/xlink"
   version="1.1"
   width="638.55981"
   height="685.6181"
   id="svg2">
  <defs
     id="defs4">
    <linearGradient
       id="linearGradient5193">
      <stop
         id="stop5195"
         style="stop-color:#dd0909;stop-opacity:1"
         offset="0" />
      <stop
         id="stop5205"
         style="stop-color:#ef3636;stop-opacity:0.49803922"
         offset="0.5" />
      <stop
         id="stop5197"
         style="stop-color:#ab4e4e;stop-opacity:0.54315788"
         offset="1" />
    </linearGradient>
    <radialGradient
       cx="289.64285"
       cy="543.9693"
       r="14.785714"
       fx="289.64285"
       fy="543.9693"
       id="radialGradient5203"
       xlink:href="#linearGradient5193"
       gradientUnits="userSpaceOnUse"
       gradientTransform="matrix(1,0,0,0.91545894,0,45.987743)" />
    <radialGradient
       cx="289.64285"
       cy="543.9693"
       r="14.785714"
       fx="289.64285"
       fy="543.9693"
       id="radialGradient5203-1"
       xlink:href="#linearGradient5193-7"
       gradientUnits="userSpaceOnUse"
       gradientTransform="matrix(1,0,0,0.91545894,0,45.987743)" />
    <linearGradient
       id="linearGradient5193-7">
      <stop
         id="stop5195-4"
         style="stop-color:#dd0909;stop-opacity:1"
         offset="0" />
      <stop
         id="stop5205-0"
         style="stop-color:#ef3636;stop-opacity:0.49803922"
         offset="0.5" />
      <stop
         id="stop5197-9"
         style="stop-color:#ab4e4e;stop-opacity:0.54315788"
         offset="1" />
    </linearGradient>
    <radialGradient
       cx="289.64285"
       cy="543.9693"
       r="14.785714"
       fx="289.64285"
       fy="543.9693"
       id="radialGradient5223"
       xlink:href="#linearGradient5193-7"
       gradientUnits="userSpaceOnUse"
       gradientTransform="matrix(1,0,0,0.91545894,0,45.987743)" />
    <radialGradient
       cx="289.64285"
       cy="543.9693"
       r="14.785714"
       fx="289.64285"
       fy="543.9693"
       id="radialGradient48"
       xlink:href="#linearGradient5193-7"
       gradientUnits="userSpaceOnUse"
       gradientTransform="matrix(1,0,0,0.91545894,0,45.987743)" />
    <radialGradient
       cx="289.64285"
       cy="543.9693"
       r="14.785714"
       fx="289.64285"
       fy="543.9693"
       id="radialGradient78"
       xlink:href="#linearGradient5193-7"
       gradientUnits="userSpaceOnUse"
       gradientTransform="matrix(1,0,0,0.91545894,0,45.987743)" />
  </defs>
  <metadata
     id="metadata7">
    <rdf:RDF>
      <cc:Work
         rdf:about="">
        <dc:format>image/svg+xml</dc:format>
        <dc:type
           rdf:resource="http://purl.org/dc/dcmitype/StillImage" />
        <dc:title></dc:title>
      </cc:Work>
    </rdf:RDF>
  </metadata>
  <g
     transform="translate(-148.15354,-269.49923)"
     id="layer1">
    <g
       transform="matrix(0.57614898,0.81734469,-0.81734469,0.57614898,910.19934,307.47604)"
       id="g34">
      <path
         d="m 221.93891,533.79075 c -4.45761,-21.64651 -14.92315,-40.10426 -19.01742,-93.98367 -0.52773,-6.94473 28.79747,-6.8702 40.00636,-14.32719 19.22304,-12.78859 29.71763,-20.96198 29.21501,-30.26057 -9.96438,16.59398 -33.86694,29.32223 -49.17752,31.23125 -16.78456,2.0928 10.39619,-25.4843 14.17675,-47.04208 0.73632,-4.19866 -28.84672,53.57209 -21.9629,-4.03551 -7.27541,11.60949 -0.87677,25.66688 -2.1393,34.36592 -2.34894,16.18449 -6.6911,21.81712 -9.4598,21.85352 -18.69231,0.24574 -14.49626,-39.1216 -16.95573,-60.94949 6.87609,-4.82747 33.27728,-11.1919 32.08291,-15.91148 -0.2352,-0.9294 -36.67942,24.2385 -32.55267,-13.07392 -9.90901,26.63004 16.84999,119.12617 -34.26262,34.10535 6.72244,20.81583 21.40779,27.07719 13.76756,35.94494 -2.73395,3.17319 -13.69884,-31.4122 -31.66225,-43.67468 11.39473,11.82408 26.04652,56.63717 38.73368,49.40996 21.08246,-12.00959 25.94039,46.2896 27.98331,57.77622 16.00426,89.9862 11.13465,50.95239 12.14286,141.42858 8.7017,59.00255 -21.14206,44.31524 -32.85714,64.28571 20.62884,-14.37288 20.74956,-5.50061 20.07125,11.24041 2.91888,-30.19593 16.93722,-34.98849 15.34804,-25.12853 -0.91252,5.66173 -7.1535,16.26128 -13.69406,33.72635 -1.62713,4.34486 -14.63701,6.58923 -16.22378,11.81356 34.5454,-20.92579 1.03117,13.73495 5.75742,9.55024 8.15497,-6.60921 16.06887,-13.7196 17.02517,-18.89879 11.64563,-63.07154 16.02462,33.72587 16.11785,24.06051 0.14449,-14.97816 4.48244,-10.64429 5.45096,-7.24427 2.29115,8.04321 -2.48505,-7.84144 -3.71271,-12.86375 -3.75511,-15.36209 -3.69637,-26.26244 -2.59362,-33.71973 1.66357,-11.24977 13.7975,15.63357 26.92647,48.13148 1.69039,4.18421 -3.81734,-28.67087 -6.73517,-29.97154 -38.88459,-58.8516 11.0947,-40.83729 30.54789,-14.98165 -16.51407,-33.31702 -51.60865,-23.93618 -54.719,-59.06908 -2.92229,-33.00857 -4.12877,-55.23629 5.43329,-67.35949 2.6541,-3.36498 16.42857,2.85714 16.42857,2.85714 0,0 18.07045,38.34648 58.57143,27.85715 40.50098,-10.48934 42.53733,-48.80793 10,-69.28572 -29.71574,-18.70199 -58.44238,-5.91363 -64.93002,30.06733 0,0 -21.19637,1.47059 -23.13107,-7.92448 z"
         id="path2985"
         style="fill:none;stroke:#000000;stroke-width:1px;stroke-linecap:butt;stroke-linejoin:miter;stroke-opacity:1" />
      <path
         d="m 303.92857,543.9693 a 14.285714,13.035714 0 1 1 -28.57143,0 14.285714,13.035714 0 1 1 28.57143,0 z"
         id="path2989"
         style="fill:url(#radialGradient5203);fill-opacity:1;stroke:#000000;stroke-width:1;stroke-linejoin:round;stroke-miterlimit:4;stroke-opacity:1;stroke-dasharray:none;stroke-dashoffset:0" />
    </g>
    <g
       transform="matrix(0.57927268,0.56899754,-0.58438999,0.56401501,661.655,-111.70842)"
       id="g38">
      <path
         d="m 471.42978,388.08989 c -2.31776,-1.81744 -9.71837,-50.40735 -13.24212,-48.20507 -2.85764,1.78597 11.30569,25.65573 1.13733,27.82116 -2.05726,0.43811 -10.77008,-5.60685 -27.6765,-3.70706 -3.68968,0.41461 18.45175,0.56567 28.89282,8.35918 7.65278,5.71225 5.59243,16.60673 2.76042,17.77923 -6.68873,2.76925 -28.68081,-14.07993 -34.33368,-15.73592 -5.08156,-1.48864 16.5933,11.92369 18.68194,17.50181 1.13569,3.03307 -19.92101,2.47142 -16.35281,3.96226 10.95462,4.57698 15.06234,-7.1146 69.73049,5.10418 6.30693,1.40965 8.44691,11.11226 13.25804,19.60681 9.52466,16.81675 -1.37452,49.59302 1.42858,91.07143 1.12387,16.63038 -36.24887,21.82651 -38.57143,56.42857 -1.18549,17.66174 46.6816,33.63194 47.14286,42.85714 l 2.85714,57.14286 c 3.16611,63.32231 -25.89356,72.77872 -41.42857,94.28571 7.62768,-7.54052 20.69193,-18.21456 28.61922,-25.72952 6.65926,-6.31288 10.85714,-0.79364 7.78345,4.21959 -4.78174,7.79907 -8.46701,11.53106 -11.58906,17.63863 -3.3891,6.63 -21.3293,2.92174 -28.06823,14.66501 11.35163,-9.36941 15.7703,-5.70265 16.16058,2.09681 0.42401,8.47374 3.42149,14.33975 4.67757,16.46927 1.90826,3.23521 -6.62053,-25.39692 -1.01322,-24.89736 8.30632,0.74003 15.47709,-14.79796 21.64737,-21.51063 8.17093,-8.88918 13.97323,4.55796 2.90765,20.79908 -3.81025,5.59235 -10.51772,14.99974 -8.75937,13.06318 20.60989,-22.69869 6.90293,3.5853 2.1936,16.86135 -1.90021,5.35686 7.79881,-15.72766 11.50851,-22.51752 1.13219,-2.07225 0.26757,-8.47174 0.56812,-10.26157 5.31648,-31.66056 9.6789,20.51861 12.40331,23.43124 1.92897,2.06222 -3.20288,-12.05461 0.0468,-16.89793 1.16332,-1.73382 5.54682,0.94542 8.74345,1.25104 5.15871,0.49321 -12.39086,-7.83978 -10.28422,-10.02022 1.6069,-1.66319 -2.18337,-11.91852 0.31954,-9.49731 6.92529,6.69922 33.97164,14.11781 37.84924,7.97972 -6.25055,1.15858 -18.92758,-0.24514 -24.88346,-4.46976 -3.60134,-2.5545 7.21642,-9.86016 7.79908,-12.27463 0.95256,-3.9473 -10.9012,9.08842 -13.04712,8.35703 -30.85866,-10.51757 -25.92671,-32.17267 -18.7971,-75.54121 1.6461,-10.01303 1.45161,-27.72674 3.11413,-65.44748 0.45643,-10.35594 27.56402,-40.82666 25.81444,-58.48109 -1.58438,-15.98738 -38.05829,-25.36414 -37.85715,-41.42858 0.51162,-40.86035 -7.72323,-46.98471 5,-87.85714 5.92591,-19.03652 38.57143,-45.71428 38.57143,-45.71428 -1.33212,-0.54798 -24.32915,15.87033 -26.7929,16.16992 -5.95206,0.72376 2.36749,-29.94897 1.10998,-28.84375 -8.40952,7.39103 -1.7999,40.28965 -14.32219,43.63458 -11.61757,3.10326 -25.19103,-15.52801 -30.69115,-21.66924 -2.47022,-2.75816 -5.86197,-14.42978 3.58418,-24.28447 3.84088,-4.007 14.06183,-11.4441 10.6515,-10.1581 -4.27766,1.61307 -12.41604,10.58088 -13.66242,6.26572 -1.63499,-5.66059 8.20761,-25.19412 6.66592,-22.00137 -34.20678,39.11834 13.42428,72.46233 -32.25599,52.3287 z"
         id="path2987"
         style="fill:none;stroke:#000000;stroke-width:1px;stroke-linecap:butt;stroke-linejoin:miter;stroke-opacity:1" />
      <path
         d="m 303.92857,543.9693 a 14.285714,13.035714 0 1 1 -28.57143,0 14.285714,13.035714 0 1 1 28.57143,0 z"
         transform="translate(228.92858,20.178597)"
         id="path2989-4"
         style="fill:url(#radialGradient5223);fill-opacity:1;stroke:#000000;stroke-width:1;stroke-linejoin:round;stroke-miterlimit:4;stroke-opacity:1;stroke-dasharray:none;stroke-dashoffset:0" />
    </g>
    <text
       x="561.31177"
       y="451.2764"
       id="text5252"
       xml:space="preserve"
       style="font-size:36px;font-style:normal;font-weight:normal;line-height:125%;letter-spacing:0px;word-spacing:0px;fill:#000000;fill-opacity:1;stroke:none;font-family:Sans"><tspan
         x="561.31177"
         y="451.2764"
         id="tspan5254">2</tspan></text>
    <text
       x="195.63654"
       y="451.2764"
       id="text5252-8"
       xml:space="preserve"
       style="font-size:36px;font-style:normal;font-weight:normal;line-height:125%;letter-spacing:0px;word-spacing:0px;fill:#000000;fill-opacity:1;stroke:none;font-family:Sans"><tspan
         x="195.63654"
         y="451.2764"
         id="tspan5254-8">1</tspan></text>
    <g
       transform="matrix(0.78502139,0.61946866,-0.61946866,0.78502139,218.11451,-262.05227)"
       id="g42">
      <path
         d="m 208.375,12.59375 c 9.3413,48.5045 3.0975,46.169254 -18.65625,2.40625 4.28942,27.101254 11.75367,26.247732 17.1875,39.4375 8.2747,20.085551 -1.50002,22.418361 -11.40625,15.53125 -5.38011,-3.740419 -9.45138,-11.111708 -13.75,-17.78125 -1.52516,0.966602 1.98224,8.164097 6.21875,13.03125 3.7268,4.281563 3.17454,6.635632 6.53125,8.875 -6.33501,-2.865807 -13.29724,-8.692533 -19.34375,-12.125 13.07369,18.722078 18.86286,15.882495 35.15625,14.6875 6.43964,9.263882 14.57291,23.57034 16.53125,32.875 2.42415,19.17409 -20.1212,45.37738 -33.28125,84.8125 -5.27641,15.81114 -45.7888,4.74566 -57.09375,37.53125 -16.10703,46.71214 58.63355,91.02542 84.21875,16.8125 5.23626,-15.18842 -25.5997,-37.90312 -19.3125,-52.6875 15.99168,-37.60447 10.70711,-46.39721 38,-79.375 12.6338,-7.67401 34.15102,-0.84331 41.6875,-10.9375 -17.8781,6.68642 -23.86779,4.78387 -2.25,-13.1875 -6.7176,4.515372 -22.2167,13.3464 -29.96875,16.4375 -6.66367,-1.06086 2.1189,-16.403877 8.46875,-28.96875 3.28435,-3.108867 6.937,-6.225762 13.5625,-6.5 6.4416,-0.355775 20.99316,2.658817 26.125,-2.21875 -7.63476,-0.0448 -15.74074,0.943816 -23.9375,0.375 14.67115,-0.556064 10.4086,-3.720565 23.65625,-6.21875 -9.33185,0.128162 -23.99919,1.990387 -32.65625,6.125 -1.75782,0.995277 -2.82439,2.461429 -4.34375,3.5625 0.52739,-1.131158 1.02186,-2.234235 1.4375,-3.25 2.06482,-5.045153 8.02328,-18.607598 10.34375,-25.40625 1.0125,-2.966484 0.84726,-6.634478 0.53125,-9.40625 -0.45522,-3.992745 -2.73569,-7.322451 -12.125,-11.6875 8.11145,10.536673 9.23084,21.444051 7.03125,24.21875 -2.58803,3.264697 1.24963,-10.671238 -28.625,-14.84375 21.31337,11.219754 27.47489,15.183956 23.4375,24.90625 -8.60237,12.023769 -18.11262,49.32007 -30.69892,56.80235 3.16557,-8.72029 -15.47287,-35.569713 -16.08233,-43.11485 -0.92364,-11.434791 6.35852,-39.338275 -6.59375,-60.71875 z"
         transform="matrix(0.92507235,-0.37979093,0.37979093,0.92507235,262.83721,405.39613)"
         id="path44"
         style="fill:none;stroke:#000000;stroke-width:1px;stroke-linecap:butt;stroke-linejoin:miter;stroke-opacity:1" />
      <path
         d="m 303.92857,543.9693 a 14.285714,13.035714 0 1 1 -28.57143,0 14.285714,13.035714 0 1 1 28.57143,0 z"
         transform="matrix(-0.21966878,0.97557451,-0.97557451,-0.21966878,1112.8861,401.06983)"
         id="path46"
         style="fill:url(#radialGradient48);fill-opacity:1;stroke:#000000;stroke-width:1;stroke-linejoin:round;stroke-miterlimit:4;stroke-opacity:1;stroke-dasharray:none;stroke-dashoffset:0" />
    </g>
    <g
       transform="matrix(0.46306505,0.88632429,-0.88632429,0.46306505,558.12434,79.577491)"
       id="g72">
      <path
         d="m 269.4375,371.0625 c -0.54115,3.35055 -0.0221,15.8971 -0.0625,27.1875 -0.0291,8.13566 0.33725,14.93904 -3.46875,20.40625 -1.70136,2.44393 -6.00916,6.98676 -8.09375,3.6875 -1.84595,-2.92155 -4.40598,-31.02183 -8.8125,-35.625 -3.24255,8.96329 7.21494,18.23381 3.3125,31.0625 -1.93641,-2.68401 -3.44506,-21.69611 -16.21875,-30.0625 0.36424,1.4234 1.03836,4.11533 3.78125,10.375 3.09835,7.07085 11.42027,18.14574 8.5625,27.21875 -1.27717,4.05481 -7.97887,5.11205 -10.125,7.78125 -10.4661,2.99767 -14.0833,9.87728 -17.71875,15.96875 -5.43973,9.11461 -1.55964,14.13276 1.34375,21.375 11.44144,28.53954 7.90273,51.95501 -0.0625,66.25 -3.16378,5.67796 -10.12736,14.6721 -14.03125,17.0625 -8.48608,4.3685 -18.92364,4.87409 -28.53125,1.375 -3.5173,-5.67885 -7.34796,-11.20102 -6.25,-19.1875 0.41239,-1.4559 1.3238,-2.69199 3.03125,-3.53125 8.26893,-4.06447 11.3125,-12.09375 11.3125,-12.09375 -4.11554,2.09637 -7.68131,5.13553 -12.40625,6.875 -1.85093,0.68142 -3.18722,1.30261 -4.1875,1.875 -0.62611,-2.09556 -1.31548,-4.04015 -2,-6.0937 -0.34607,-3.94339 2.18011,-11.42231 8.03125,-25.90625 0,0 -9.12407,3.61092 -8.71875,14.40625 0.11209,2.98548 -6.65625,15.25 -6.65625,15.25 -0.78985,-1.78131 -2.52086,-3.40324 -2.34375,-5.34375 0.25598,-2.80489 0.19284,-3.54602 0.375,-7.28125 0.39496,-8.09862 -2.53047,-8.12314 -4.75,-13.625 1.16967,14.66169 2.15248,14.79462 0.21875,19.09375 C 149.7481,517.10849 135.38887,500.8631 127,493.40625 c 3.12042,4.86841 4.58284,10.48928 10.0625,15.21875 2.60761,2.25064 7.44391,5.35456 10.1875,8.65625 -6.64203,-4.42249 -17.65375,-6.83204 -28.09375,-7.8125 11.47603,10.23051 16.84409,3.36621 32.8125,15.65625 3.43705,2.64532 4.78343,7.2142 4.84375,11.9375 1.25644,6.1447 -3.14042,10.67417 -8.46875,14.9375 -4.95758,0.0296 -9.96016,2.88669 -15.21875,-3.21875 -3.69396,-1.94704 -7.43665,-5.5029 -9.90625,-11.875 -2.18117,-5.62787 -6.19192,-7.01642 -9.40625,-14.28125 13.23928,33.56841 1.88877,20.63267 -9.5625,6.375 0,0 -0.73726,9.44045 3.40625,11.09375 4.2631,3.49567 5.43619,8.28527 8.59375,13.5 0.37466,0.9087 0.71875,1.75 0.71875,1.75 -5.49488,-3.48136 -13.11924,-2.37888 -18,-4.625 -6.181426,-2.84476 -5.982608,-7.33218 -12.6875,-15.4375 -3.570696,-4.31657 -7.186149,-2.48446 -12.1875,-7.4375 4.660832,10.14589 22.279977,13.3962 -6.75,16.21875 17.425573,2.97701 27.238667,4.88254 28.21875,12.625 -3.204372,5.6643 -4.092683,5.55379 -8.03125,5.53125 -6.309814,-0.0361 -12.030752,-1.74021 -18.0625,-2.5625 6.835674,1.17719 7.408807,5.57469 7.21875,7.71875 -0.254269,2.86887 -3.431612,3.79155 -9.78125,7.5 7.420327,-2.00485 14.449598,-3.72684 22.46875,-7.65625 8.104314,-3.97115 7.074706,-6.59535 14.90625,-8.6875 9.73588,-2.60089 10.06259,1.8666 15.78125,5.375 4.85635,4.3227 7.05098,8.14877 10.09375,13.34375 -1.16773,4.95442 -9.28643,15.41241 -19,19.125 -10.94991,11.26808 -22.721456,2.54208 -33.25,6.125 10.953229,1.65586 14.140447,3.34275 10.75,6.21875 -5.614763,4.76281 -7.564964,6.74086 -13.59375,10.625 20.751096,-7.73986 15.01336,-2.674 27.9375,-11 1.99277,-1.28379 3.54747,-2.04663 4.75,-2.4375 l 2.8125,-0.0312 c 2.03776,1.28188 0.0825,6.55257 -0.9375,8.90625 -2.62741,6.06274 -3.02767,16.07948 -9.5,17.40625 -6.793065,1.39253 -8.75,16.0625 -8.75,16.0625 10.33746,-9.4742 16.58438,-12.57273 8.46875,6.8125 3.99474,-6.18853 9.6201,-13.8274 12.375,-23.5625 3.81266,-10.95581 3.05421,-21.96742 7.34375,-25.6875 7.39347,-1.85437 14.19682,-6.36432 23.375,-0.1875 9.11579,13.47354 7.15447,16.25735 9.625,29.53125 0.41324,6.34251 -1.79073,14.55833 -8.03125,24.4375 3.14835,-3.62616 10.31478,-14.04881 12.625,-8.6875 1.25506,2.91263 8.7359,11.016 11.53125,13.875 -4.65018,-9.12401 -8.89476,-24.1906 -7.4375,-33.75 2.81939,-7.81579 1.96335,-16.65254 12.65625,-22.28125 10.57539,-0.45459 20.9859,-0.29088 29.6875,6.28125 5.28755,4.42354 6.09896,6.02593 6.46875,10.75 0.53148,8.08872 -2.30813,7.98749 -3.46875,16.9375 -1.14842,8.85597 -0.48221,16.0475 0,23.71875 1.47485,-7.20383 1.30194,-10.52611 3.9375,-11.6875 1.9697,-0.868 6.31663,-1.72147 9.625,4.375 -2.71429,-5.44893 -6.15983,-10.31669 -8.21875,-16.28125 -1.28517,-3.72305 -1.68028,-4.55376 2.65625,-9.40625 7.64752,-1.55617 12.62011,7.16992 21.03125,22.71875 -6.6419,-28.40055 2.08252,-12.78373 13.1875,-11.625 -6.29597,-3.14753 -5.70343,-7.15948 -10.9375,-9.15625 -9.82819,-3.74947 -14.04093,-2.12075 -18.71875,-7.0625 -5.21079,-5.68651 -5.26569,-10.8653 -9.875,-15.53125 0.83565,0.0333 14.3491,0.61589 17.15625,3.90625 2.89545,3.39387 11.625,-0.3125 11.625,-0.3125 -17.17822,-6.27068 -33.07279,-12.92391 2.96875,-11.15625 -7.91208,-0.7132 -11.04174,-6.75209 -16.5625,-4.3125 -8.90552,3.93529 -15.10978,5.58666 -19.34375,4.78125 -3.76681,0.94056 -12.90138,-11.62811 -13.03125,-22.18755 4.93465,-8.13809 9.51494,-17.96249 19.375,-20.8125 10.29611,-6.37465 13.84865,-16.41056 17.1875,-26.5625 5.69931,-17.32902 11.00168,-40.05347 -1.65625,-67.59375 -2.33631,-5.0832 -3.94932,-11.19249 -0.875,-16.34375 2.4651,-4.13043 8.33252,-8.55607 20.84375,-10.84375 13.72512,3.10029 31.11909,9.05095 41.5625,14.78125 -18.81112,-12.95118 0.44975,-8.31204 11.5625,-7.8125 -7.03693,-1.91374 -15.89823,-3.12249 -24.125,-4.34375 2.72574,-2.34053 6.33293,-4.37639 9.5625,-6.4375 2.4427,-1.55895 4.25941,-2.83313 6.71875,-4.75 -3.63995,1.12008 -6.59028,3.82154 -8.90625,1.875 -1.78147,-1.4973 -1.2107,-3.33531 0.21875,-7 -0.88082,2.32057 -2.74905,3.65037 -3.9375,5.78125 -2.12595,3.81184 -7.38148,9.0695 -13.8125,8.875 -6.73923,-0.53495 -11.77132,-4.64027 -18.0625,-6.625 1.46514,-5.78365 6.95931,-3.6595 10.5,-5.34375 2.64356,-1.25753 5.68383,-1.81337 8.03125,-3.5625 2.61994,-1.95221 3.03895,-1.91914 6.34375,-7.4375 1.53023,-2.98563 9.42889,-9.33552 15.25,-12.3125 4.68339,-2.39519 10.42147,-2.93099 15.21875,-4.15625 -8.64977,0.59265 -14.89905,-0.14393 -9.9375,-7.4375 -6.8062,4.52394 -9.39768,9.24275 -12.21875,12.5625 -2.84565,3.34868 -5.89029,5.25234 -6.84375,3.65625 -1.80692,-3.02482 -2.44492,-19.18942 0.15625,-26.3125 1.56784,-4.29336 6.40519,-10.40768 7.0625,-13.78125 -3.80577,1.61131 -6.59399,15.55818 -11.875,-0.5 z"
         transform="matrix(0.46306506,-0.8863243,0.8863243,0.46306506,-34.823029,483.4593)"
         id="path933"
         style="fill:none;stroke:#000000;stroke-width:1;stroke-miterlimit:4;stroke-dasharray:none" />
      <path
         d="m 303.92857,543.9693 a 14.285714,13.035714 0 1 1 -28.57143,0 14.285714,13.035714 0 1 1 28.57143,0 z"
         transform="matrix(-0.32109214,-0.94704796,0.94704796,-0.32109214,132.95417,1057.0959)"
         id="path76"
         style="fill:url(#radialGradient78);fill-opacity:1;stroke:#000000;stroke-width:1;stroke-linejoin:round;stroke-miterlimit:4;stroke-opacity:1;stroke-dasharray:none;stroke-dashoffset:0" />
    </g>
    <text
       x="195.63654"
       y="782.60645"
       id="text867"
       xml:space="preserve"
       style="font-size:36px;font-style:normal;font-weight:normal;line-height:125%;letter-spacing:0px;word-spacing:0px;fill:#000000;fill-opacity:1;stroke:none;font-family:Sans"><tspan
         x="195.63654"
         y="782.60645"
         id="tspan869">3</tspan></text>
    <text
       x="561.31177"
       y="782.60645"
       id="text871"
       xml:space="preserve"
       style="font-size:36px;font-style:normal;font-weight:normal;line-height:125%;letter-spacing:0px;word-spacing:0px;fill:#000000;fill-opacity:1;stroke:none;font-family:Sans"><tspan
         x="561.31177"
         y="782.60645"
         id="tspan873">4</tspan></text>
  </g>
</svg>
